<?xml version="1.0" standalone="no"?><svg xmlns="http://www.w3.org/2000/svg" viewBox="0 0 1440 320"><path fill="black" fill-opacity="1" d="M0,224L30,224C60,224,120,224,180,197.3C240,171,300,117,360,117.3C420,117,480,171,540,165.3C600,160,660,96,720,96C780,96,840,160,900,192C960,224,1020,224,1080,208C1140,192,1200,160,1260,144C1320,128,1380,128,1410,128L1440,128L1440,320L1410,320C1380,320,1320,320,1260,320C1200,320,1140,320,1080,320C1020,320,960,320,900,320C840,320,780,320,720,320C660,320,600,320,540,320C480,320,420,320,360,320C300,320,240,320,180,320C120,320,60,320,30,320L0,320Z"></path></svg>