<?xml version="1.0" standalone="no"?><svg xmlns="http://www.w3.org/2000/svg" viewBox="0 0 1440 320"><path fill="#273036" fill-opacity="1" d="M0,64L34.3,90.7C68.6,117,137,171,206,170.7C274.3,171,343,117,411,112C480,107,549,149,617,181.3C685.7,213,754,235,823,202.7C891.4,171,960,85,1029,96C1097.1,107,1166,213,1234,240C1302.9,267,1371,213,1406,186.7L1440,160L1440,320L1405.7,320C1371.4,320,1303,320,1234,320C1165.7,320,1097,320,1029,320C960,320,891,320,823,320C754.3,320,686,320,617,320C548.6,320,480,320,411,320C342.9,320,274,320,206,320C137.1,320,69,320,34,320L0,320Z"></path></svg>